<?xml version="1.0" encoding="UTF-8"?>
<svg xmlns="http://www.w3.org/2000/svg" xmlns:xlink="http://www.w3.org/1999/xlink" width="720pt" height="150.61pt" viewBox="0 0 720 150.61" version="1.1">
<g id="surface1">
<path style=" stroke:none;fill-rule:nonzero;fill:rgb(94.509888%,22.3526%,23.921204%);fill-opacity:1;" d="M 117.550781 135.917969 C 84.074219 135.917969 56.9375 108.78125 56.9375 75.304688 C 56.9375 41.828125 84.074219 14.691406 117.550781 14.691406 C 129.347656 14.691406 140.363281 18.0625 149.675781 23.894531 L 117.550781 75.304688 L 178.027344 40.390625 C 171.460938 29.910156 162.035156 20.886719 150.609375 14.039062 C 136.136719 5.367188 115.96875 0 93.675781 0 C 61.84375 0 33.941406 11.542969 18.367188 28.863281 C 6.863281 41.65625 0 57.78125 0 75.304688 C 0 92.828125 6.859375 108.953125 18.367188 121.75 C 33.976562 139.109375 61.464844 150.609375 92.753906 150.609375 C 124.042969 150.609375 151.519531 139.101562 167.144531 121.75 C 167.996094 120.800781 168.824219 119.832031 169.625 118.851562 L 167.253906 110.003906 C 156.300781 125.671875 138.121094 135.917969 117.550781 135.917969 "/>
<path style=" stroke:none;fill-rule:nonzero;fill:rgb(94.509888%,22.3526%,23.921204%);fill-opacity:1;" d="M 240.613281 132.242188 C 228.4375 132.242188 218.570312 122.375 218.570312 110.203125 C 218.570312 98.03125 228.4375 88.164062 240.613281 88.164062 C 252.785156 88.164062 262.652344 98.03125 262.652344 110.203125 C 262.652344 122.375 252.785156 132.242188 240.613281 132.242188 Z M 318.03125 146.9375 L 292.660156 52.257812 C 288.574219 36.972656 274.636719 25.710938 258.058594 25.710938 C 253.757812 25.710938 249.628906 26.472656 245.808594 27.863281 L 191.164062 47.757812 L 247.371094 47.757812 L 256.980469 83.613281 C 247.65625 75.578125 235.519531 70.710938 222.246094 70.710938 C 195.867188 70.710938 174.488281 88.394531 174.488281 110.203125 C 174.488281 132.011719 195.867188 149.691406 222.246094 149.691406 C 241.222656 149.691406 258.027344 140.40625 268.371094 126.132812 L 273.949219 146.9375 L 318.03125 146.9375 "/>
<path style=" stroke:none;fill-rule:nonzero;fill:rgb(94.509888%,22.3526%,23.921204%);fill-opacity:1;" d="M 421.527344 25.714844 C 418.199219 25.714844 415.046875 26.453125 412.214844 27.777344 L 377.144531 44.132812 C 375.417969 33.683594 366.347656 25.714844 355.40625 25.714844 C 352.078125 25.714844 348.925781 26.453125 346.09375 27.777344 L 303.253906 47.757812 L 333.367188 47.757812 L 333.367188 146.9375 L 377.449219 146.9375 L 377.449219 58.773438 C 377.449219 52.6875 382.382812 47.753906 388.46875 47.753906 C 394.554688 47.753906 399.488281 52.6875 399.488281 58.773438 L 399.488281 146.9375 L 443.570312 146.9375 L 443.570312 47.757812 C 443.570312 35.582031 433.703125 25.714844 421.527344 25.714844 "/>
<path style=" stroke:none;fill-rule:nonzero;fill:rgb(94.509888%,22.3526%,23.921204%);fill-opacity:1;" d="M 697.957031 25.714844 C 694.632812 25.714844 691.472656 26.453125 688.644531 27.777344 L 653.574219 44.132812 C 651.847656 33.683594 642.777344 25.714844 631.839844 25.714844 C 628.507812 25.714844 625.351562 26.453125 622.519531 27.777344 L 579.683594 47.757812 L 609.796875 47.757812 L 609.796875 146.9375 L 653.878906 146.9375 L 653.878906 58.773438 C 653.878906 52.6875 658.808594 47.753906 664.898438 47.753906 C 670.984375 47.753906 675.917969 52.6875 675.917969 58.773438 L 675.917969 146.9375 L 720 146.9375 L 720 47.757812 C 720 35.582031 710.132812 25.714844 697.957031 25.714844 "/>
<path style=" stroke:none;fill-rule:nonzero;fill:rgb(94.509888%,22.3526%,23.921204%);fill-opacity:1;" d="M 526.996094 44.679688 C 525.027344 37.328125 517.472656 32.96875 510.128906 34.9375 C 502.777344 36.90625 498.414062 44.460938 500.386719 51.808594 L 521.777344 131.644531 C 523.746094 138.996094 531.300781 143.359375 538.652344 141.386719 C 546 139.417969 550.359375 131.867188 548.390625 124.515625 Z M 586.835938 88.164062 C 586.835938 122.652344 558.878906 150.609375 524.390625 150.609375 C 489.898438 150.609375 461.941406 122.652344 461.941406 88.164062 C 461.941406 53.671875 489.898438 25.714844 524.390625 25.714844 C 558.878906 25.714844 586.835938 53.671875 586.835938 88.164062 "/>
</g>
</svg>
